<?xml version="1.0" encoding="UTF-8"?>
<svg width="50px" height="50px" viewBox="0 0 50 50" version="1.1" xmlns="http://www.w3.org/2000/svg" xmlns:xlink="http://www.w3.org/1999/xlink">
    <title>logo-mark</title>
    <defs>
        <path d="M0,0 L50,0 L50,50 L0,50 L0,0 Z" id="path-1"></path>
        <polygon id="path-2" points="0 0 28.6668778 0 28.6668778 49.9996557 0 49.9996557"></polygon>
        <polygon id="path-4" points="0 0 23.3332874 0 23.3332874 42.0000275 0 42.0000275"></polygon>
    </defs>
    <g id="logo-mark" stroke="none" fill="none" xlink:href="#path-1" fill-rule="evenodd" stroke-width="1">
        <g id="Group-7" transform="translate(4, 0)">
            <g id="Group-3">
                <mask id="mask-3" fill="white">
                    <use xlink:href="#path-2"></use>
                </mask>
                <g id="Clip-2"></g>
                <path d="M18.3920186,21.5057354 L17.9554937,21.7012765 L15.2612953,21.7012765 C9.55755381,21.7012765 6.4832895,26.1353778 6.4832895,32.8753494 C6.4832895,39.2786323 9.97479998,44.410898 15.1421804,44.410898 C18.3541497,44.410898 21.1165122,42.4906016 22.5658574,41.6464699 L22.8130379,41.8303061 C23.0099561,43.6927664 24.0138256,45.6454234 24.0138256,45.6454234 L23.9222518,45.8554235 C21.6074306,47.4830967 18.2550021,49.9996557 14.1210978,49.9996557 C6.4832895,49.9996557 -0.000121809331,43.1846349 -0.000121809331,33.2987923 C-0.0466819978,22.4373098 6.24781393,16.2171746 13.8828681,16.2171746 L22.2209064,16.2157975 L22.2209064,-0.000344262521 L28.6668778,-0.000344262521 L28.6668778,7.92251339 L28.5401892,8.43477602 L18.3920186,21.5057354 Z" id="Fill-1" fill="#EC1A12" mask="url(#mask-3)"></path>
            </g>
            <g id="Group-6" transform="translate(17.9782, 8)">
                <mask id="mask-5" fill="white">
                    <use xlink:href="#path-4"></use>
                </mask>
                <g id="Clip-5"></g>
                <path d="M10.7285972,0 L10.7285972,8.2815792 L20.2274887,8.2815792 L20.2274887,13.7181729 L10.7285972,13.7181729 L10.7285972,29.7112326 C10.7285972,33.3645465 11.9569259,35.577466 14.8590589,35.6167119 C18.958537,35.6167119 22.4321459,33.1345791 23.3334251,32.4371032 L23.3334251,38.1305168 C22.3557196,38.7377959 18.228012,42.0000275 14.0651896,42.0000275 C11.0542695,42.0000275 8.31049725,40.638125 6.83085694,38.9601895 C5.07442956,37.0515981 4.38039632,33.9139895 4.38039632,30.341233 L4.38039632,13.7181729 L0,13.7181729 L10.7285972,0 Z" id="Fill-4" fill="#000000" mask="url(#mask-5)"></path>
            </g>
        </g>
    </g>
</svg>