<?xml version="1.0" encoding="UTF-8"?>
<svg width="35px" height="35px" viewBox="0 0 50 50" version="1.1" xmlns="http://www.w3.org/2000/svg" xmlns:xlink="http://www.w3.org/1999/xlink">
    <title>logo-mark</title>
    <defs>
        <path d="M0,0 L50,0 L50,50 L0,50 L0,0 Z" id="path-1"></path>
        <polygon id="path-2" points="0 0 20.0668145 0 20.0668145 34.999759 0 34.999759"></polygon>
        <polygon id="path-4" points="0 0 16.3333012 0 16.3333012 29.4000193 0 29.4000193"></polygon>
    </defs>
    <g id="logo-mark" stroke="none" fill="none" xlink:href="#path-1" fill-rule="evenodd" stroke-width="1">
        <g id="Group-7" transform="translate(11, 7)">
            <g id="Group-3">
                <mask id="mask-3" fill="white">
                    <use xlink:href="#path-2"></use>
                </mask>
                <g id="Clip-2"></g>
                <path d="M12.874413,15.0540148 L12.5688456,15.1908936 L10.6829067,15.1908936 C6.69028767,15.1908936 4.53830265,18.2947645 4.53830265,23.0127446 C4.53830265,27.4950426 6.98235999,31.0876286 10.5995263,31.0876286 C12.8479048,31.0876286 14.7815585,29.7434211 15.7961002,29.152529 L15.9691265,29.2812143 C16.1069693,30.5849364 16.8096779,31.9517964 16.8096779,31.9517964 L16.7455762,32.0987965 C15.1252014,33.2381677 12.7785015,34.999759 9.88476845,34.999759 C4.53830265,34.999759 -8.52665316e-05,30.2292444 -8.52665316e-05,23.3091546 C-0.0326773985,15.7061169 4.37346975,11.3520222 9.71800768,11.3520222 L15.5546345,11.3510583 L15.5546345,-0.000240983765 L20.0668145,-0.000240983765 L20.0668145,5.54575937 L19.9781324,5.90434322 L12.874413,15.0540148 Z" id="Fill-1" fill="#EC1A12" mask="url(#mask-3)"></path>
            </g>
            <g id="Group-6" transform="translate(12.5848, 5.6)">
                <mask id="mask-5" fill="white">
                    <use xlink:href="#path-4"></use>
                </mask>
                <g id="Clip-5"></g>
                <path d="M7.51001804,0 L7.51001804,5.79710544 L14.1592421,5.79710544 L14.1592421,9.60272105 L7.51001804,9.60272105 L7.51001804,20.7978628 C7.51001804,23.3551825 8.36984811,24.9042262 10.4013412,24.9316983 C13.2709759,24.9316983 15.7025021,23.1942054 16.3333976,22.7059723 L16.3333976,26.6913618 C15.6490037,27.1164571 12.7596084,29.4000193 9.84563269,29.4000193 C7.73798868,29.4000193 5.81734808,28.4466875 4.78159986,27.2721326 C3.55210069,25.9361186 3.06627742,23.7397926 3.06627742,21.2388631 L3.06627742,9.60272105 L0,9.60272105 L7.51001804,0 Z" id="Fill-4" fill="#000000" mask="url(#mask-5)"></path>
            </g>
        </g>
    </g>
</svg>
