<?xml version="1.0" encoding="UTF-8"?>
<svg width="180px" height="48px" viewBox="0 0 200 50" version="1.1" xmlns="http://www.w3.org/2000/svg" xmlns:xlink="http://www.w3.org/1999/xlink">
    <title>logo</title>
    <defs>
        <path d="M0,0 L200,0 L200,50 L0,50 L0,0 Z" id="path-1"></path>
        <polygon id="path-2" points="0 0 24.3345652 0 24.3345652 42.4434627 0 42.4434627"></polygon>
    </defs>
    <g id="logo" stroke="none" fill="none" xlink:href="#path-1" fill-rule="evenodd" stroke-width="1">
        <g id="Group-10" transform="translate(0, 2)">
            <g id="Group-3">
                <mask id="mask-3" fill="white">
                    <use xlink:href="#path-2"></use>
                </mask>
                <g id="Clip-2"></g>
                <path d="M15.6125051,18.2557166 L15.2419505,18.4217063 L12.9549157,18.4217063 C8.11315825,18.4217063 5.50349543,22.1856993 5.50349543,27.9070855 C5.50349543,33.3426654 8.46734765,37.6993119 12.8538022,37.6993119 C15.5803592,37.6993119 17.9252567,36.0692224 19.1555681,35.352661 L19.3653931,35.5087148 C19.5325518,37.0897087 20.3847105,38.7472683 20.3847105,38.7472683 L20.3069758,38.925532 C18.3419845,40.3072213 15.4961954,42.4434627 11.9870318,42.4434627 C5.50349543,42.4434627 -0.000103400765,36.6583691 -0.000103400765,28.2665351 C-0.0396271309,19.0465058 5.30360636,13.7663951 11.7848048,13.7663951 L18.8627481,13.7652262 L18.8627481,-0.000233788383 L24.3345652,-0.000233788383 L24.3345652,6.72527352 L24.2270225,7.16011991 L15.6125051,18.2557166 Z" id="Fill-1" fill="#EC1A12" mask="url(#mask-3)"></path>
            </g>
            <path d="M24.3684645,6.7910265 L24.3684645,13.8210432 L32.4318258,13.8210432 L32.4318258,18.4360259 L24.3684645,18.4360259 L24.3684645,32.0121173 C24.3684645,35.1133202 25.4111607,36.9918098 27.8747058,37.0251247 C31.3546459,37.0251247 34.3033019,34.9181069 35.0683743,34.3260378 L35.0683743,39.1590281 C34.2384256,39.6745315 30.7345222,42.4437549 27.2008108,42.4437549 C24.6449193,42.4437549 22.3158025,41.2876713 21.0597744,39.8633156 C19.568789,38.2431621 18.9796423,35.579728 18.9796423,32.5469082 L18.9796423,18.4360259 L15.2612381,18.4360259 L24.3684645,6.7910265 Z" id="Fill-4" fill="#000000"></path>
            <path d="M194.710538,15.9268336 L191.320606,15.9268336 L191.320606,14.3195385 L200,14.3195385 L200,15.9268336 L196.610068,15.9268336 L196.610068,24.5477802 L194.710538,24.5477802 L194.710538,15.9268336 Z M185.970944,20.2665304 L184.349037,21.9322727 L184.349037,24.5477802 L182.449506,24.5477802 L182.449506,14.3195385 L184.349037,14.3195385 L184.349037,19.5651653 L189.40471,14.3195385 L191.538029,14.3195385 L187.242168,18.8930237 L191.801041,24.5477802 L189.580052,24.5477802 L185.970944,20.2665304 Z M176.369255,24.6938979 C175.337079,24.6938979 174.404263,24.4677077 173.571392,24.0141582 C172.738521,23.5617777 172.085667,22.9358093 171.613415,22.1368375 C171.140578,21.3378657 170.904451,20.437196 170.904451,19.4336593 C170.904451,18.4301227 171.1435,17.529453 171.620428,16.7304812 C172.097941,15.9315094 172.753133,15.3061254 173.586004,14.852576 C174.418875,14.399611 175.351691,14.1734207 176.383866,14.1734207 C177.221998,14.1734207 177.986486,14.3195385 178.677915,14.6117739 C179.369929,14.9040094 179.9544,15.3277509 180.431328,15.8829983 L179.203939,17.0373284 C178.463999,16.2383566 177.552808,15.8391629 176.471537,15.8391629 C175.770172,15.8391629 175.141866,15.9922943 174.586618,16.2991416 C174.031371,16.6065733 173.598278,17.0326526 173.28617,17.577964 C172.974647,18.1232754 172.818594,18.7422302 172.818594,19.4336593 C172.818594,20.1250885 172.974647,20.7440432 173.28617,21.2893546 C173.598278,21.834666 174.031371,22.2607454 174.586618,22.5681771 C175.141866,22.8744399 175.770172,23.0281557 176.471537,23.0281557 C177.552808,23.0281557 178.463999,22.6237018 179.203939,21.8153785 L180.431328,22.9843204 C179.9544,23.5395678 179.367591,23.9633093 178.670901,24.2555447 C177.974212,24.5477802 177.207386,24.6938979 176.369255,24.6938979 L176.369255,24.6938979 Z M164.312788,24.6938979 C162.900706,24.6938979 161.799563,24.2970422 161.010527,23.5027461 C160.221491,22.7090346 159.826973,21.5716541 159.826973,20.0911892 L159.826973,14.3195385 L161.726504,14.3195385 L161.726504,20.0181303 C161.726504,22.0246191 162.593859,23.0281557 164.3274,23.0281557 C166.051589,23.0281557 166.913684,22.0246191 166.913684,20.0181303 L166.913684,14.3195385 L168.783991,14.3195385 L168.783991,20.0911892 C168.783991,21.5716541 168.392395,22.7090346 167.608035,23.5027461 C166.823675,24.2970422 165.725454,24.6938979 164.312788,24.6938979 L164.312788,24.6938979 Z M155.690672,17.9578702 C155.690672,17.3050161 155.476171,16.80354 155.047754,16.4528574 C154.618753,16.1021749 153.990446,15.9268336 153.162835,15.9268336 L150.941846,15.9268336 L150.941846,20.0035185 L153.162835,20.0035185 C153.990446,20.0035185 154.618753,19.8258393 155.047754,19.4698965 C155.476171,19.1145382 155.690672,18.6107242 155.690672,17.9578702 L155.690672,17.9578702 Z M155.734508,24.5477802 L153.645024,21.5523666 C153.557353,21.5623026 153.425847,21.5669783 153.250506,21.5669783 L150.941846,21.5669783 L150.941846,24.5477802 L149.042315,24.5477802 L149.042315,14.3195385 L153.250506,14.3195385 C154.136564,14.3195385 154.90865,14.4656562 155.56618,14.7578917 C156.22371,15.0501272 156.728108,15.4691928 157.078791,16.0145042 C157.429473,16.5598156 157.604815,17.2079939 157.604815,17.9578702 C157.604815,18.7276184 157.417199,19.389824 157.041969,19.9450714 C156.666739,20.5003188 156.129025,20.9141243 155.42766,21.1870722 L157.780156,24.5477802 L155.734508,24.5477802 Z M141.164816,22.9404851 C141.914692,22.9404851 142.574559,22.7967052 143.144419,22.5091455 C143.714278,22.2221703 144.152631,21.8130406 144.459478,21.2817565 C144.766326,20.7510569 144.920041,20.1350245 144.920041,19.4336593 C144.920041,18.7322942 144.766326,18.1162618 144.459478,17.5849777 C144.152631,17.0542781 143.714278,16.6451484 143.144419,16.3581732 C142.574559,16.0706134 141.914692,15.9268336 141.164816,15.9268336 L138.680814,15.9268336 L138.680814,22.9404851 L141.164816,22.9404851 Z M136.781283,14.3195385 L141.252486,14.3195385 C142.343109,14.3195385 143.312746,14.5311169 144.160229,14.9548584 C145.007712,15.3791843 145.665242,15.9776826 146.132819,16.7521066 C146.600395,17.5271151 146.834184,18.4207712 146.834184,19.4336593 C146.834184,20.4465475 146.600395,21.3402036 146.132819,22.1146276 C145.665242,22.8896361 145.007712,23.4887188 144.160229,23.9118758 C143.312746,24.3356173 142.343109,24.5477802 141.252486,24.5477802 L136.781283,24.5477802 L136.781283,14.3195385 Z M128.332171,17.9578702 C128.332171,17.3050161 128.11767,16.80354 127.689253,16.4528574 C127.260836,16.1021749 126.63253,15.9268336 125.804334,15.9268336 L123.583345,15.9268336 L123.583345,20.0035185 L125.804334,20.0035185 C126.63253,20.0035185 127.260836,19.8258393 127.689253,19.4698965 C128.11767,19.1145382 128.332171,18.6107242 128.332171,17.9578702 L128.332171,17.9578702 Z M128.376007,24.5477802 L126.286523,21.5523666 C126.198852,21.5623026 126.067346,21.5669783 125.892005,21.5669783 L123.583345,21.5669783 L123.583345,24.5477802 L121.683814,24.5477802 L121.683814,14.3195385 L125.892005,14.3195385 C126.778647,14.3195385 127.550734,14.4656562 128.208263,14.7578917 C128.865793,15.0501272 129.369607,15.4691928 129.72029,16.0145042 C130.070972,16.5598156 130.246314,17.2079939 130.246314,17.9578702 C130.246314,18.7276184 130.058698,19.389824 129.684053,19.9450714 C129.308822,20.5003188 128.770524,20.9141243 128.069159,21.1870722 L130.421655,24.5477802 L128.376007,24.5477802 Z M119.3734,22.9550968 L119.3734,24.5477802 L111.702219,24.5477802 L111.702219,14.3195385 L119.168836,14.3195385 L119.168836,15.9122218 L113.60175,15.9122218 L113.60175,18.5715647 L118.540529,18.5715647 L118.540529,20.1350245 L113.60175,20.1350245 L113.60175,22.9550968 L119.3734,22.9550968 Z M108.763499,14.3195385 L108.763499,24.5477802 L106.863968,24.5477802 L106.863968,20.164248 L101.574506,20.164248 L101.574506,24.5477802 L99.6749757,24.5477802 L99.6749757,14.3195385 L101.574506,14.3195385 L101.574506,18.5423411 L106.863968,18.5423411 L106.863968,14.3195385 L108.763499,14.3195385 Z M96.7368402,14.3195385 L96.7368402,24.5477802 L95.1733804,24.5477802 L89.5332356,17.6217994 L89.5332356,24.5477802 L87.6483168,24.5477802 L87.6483168,14.3195385 L89.2117766,14.3195385 L94.8519214,21.2455193 L94.8519214,14.3195385 L96.7368402,14.3195385 Z M83.4237607,17.9578702 C83.4237607,17.3050161 83.2092599,16.80354 82.7808427,16.4528574 C82.351841,16.1021749 81.7235347,15.9268336 80.8959238,15.9268336 L78.6749342,15.9268336 L78.6749342,20.0035185 L80.8959238,20.0035185 C81.7235347,20.0035185 82.351841,19.8258393 82.7808427,19.4698965 C83.2092599,19.1145382 83.4237607,18.6107242 83.4237607,17.9578702 L83.4237607,17.9578702 Z M83.4675961,24.5477802 L81.3781124,21.5523666 C81.2904417,21.5623026 81.1589358,21.5669783 80.9835945,21.5669783 L78.6749342,21.5669783 L78.6749342,24.5477802 L76.7754036,24.5477802 L76.7754036,14.3195385 L80.9835945,14.3195385 C81.8696525,14.3195385 82.6417386,14.4656562 83.2992684,14.7578917 C83.9567982,15.0501272 84.4611967,15.4691928 84.8118793,16.0145042 C85.1625618,16.5598156 85.3379031,17.2079939 85.3379031,17.9578702 C85.3379031,18.7276184 85.1502879,19.389824 84.7750576,19.9450714 C84.4004117,20.5003188 83.8621139,20.9141243 83.1607488,21.1870722 L85.5132444,24.5477802 L83.4675961,24.5477802 Z M69.4531514,24.6938979 C68.0404851,24.6938979 66.9399263,24.2970422 66.1508905,23.5027461 C65.3618547,22.7090346 64.9673368,21.5716541 64.9673368,20.0911892 L64.9673368,14.3195385 L66.8668675,14.3195385 L66.8668675,20.0181303 C66.8668675,22.0246191 67.7336379,23.0281557 69.4677632,23.0281557 C71.1919525,23.0281557 72.0540472,22.0246191 72.0540472,20.0181303 L72.0540472,14.3195385 L73.9243543,14.3195385 L73.9243543,20.0911892 C73.9243543,21.5716541 73.5321742,22.7090346 72.7478142,23.5027461 C71.9640387,24.2970422 70.8658177,24.6938979 69.4531514,24.6938979 L69.4531514,24.6938979 Z M62.1162875,14.3195385 L62.1162875,24.5477802 L60.2167569,24.5477802 L60.2167569,20.164248 L54.9272947,20.164248 L54.9272947,24.5477802 L53.0277641,24.5477802 L53.0277641,14.3195385 L54.9272947,14.3195385 L54.9272947,18.5423411 L60.2167569,18.5423411 L60.2167569,14.3195385 L62.1162875,14.3195385 Z M46.1146416,15.9268336 L42.7247101,15.9268336 L42.7247101,14.3195385 L51.4041038,14.3195385 L51.4041038,15.9268336 L48.0141723,15.9268336 L48.0141723,24.5477802 L46.1146416,24.5477802 L46.1146416,15.9268336 Z" id="Fill-6" fill="#000000"></path>
            <path d="M126.835575,39.7586369 C126.835575,40.7037264 127.137746,41.1759789 127.741505,41.1759789 C128.092187,41.1759789 128.491381,40.9813501 128.93967,40.591508 C129.38796,40.2016659 129.777217,39.7440251 130.108612,39.2180012 L131.072989,35.41894 C130.868424,35.3505569 130.6247,35.3166576 130.342401,35.3166576 C129.660323,35.3166576 129.044291,35.5481081 128.493719,36.0110091 C127.943732,36.4733256 127.529342,37.038509 127.251718,37.7059749 C126.974094,38.3728562 126.835575,39.0572717 126.835575,39.7586369 L126.835575,39.7586369 Z M124.278514,45.311111 C124.278514,44.8435342 124.648485,44.4098568 125.389009,44.0106631 C125.428169,44.1082697 125.491292,44.2812731 125.578962,44.5296733 C125.666633,44.7780735 125.727418,44.9434787 125.761317,45.0258891 C125.795801,45.108884 125.854248,45.2281161 125.936659,45.3841698 C126.019653,45.5402236 126.097973,45.6448439 126.171031,45.6986152 C126.24409,45.7518021 126.341112,45.8055734 126.463267,45.8593447 C126.584837,45.9125316 126.718681,45.9394172 126.864798,45.9394172 C127.897559,45.9394172 128.686594,44.8628217 129.231906,42.7102152 L129.772541,40.5330609 C128.934995,41.6336197 128.019129,42.1841913 127.025528,42.1841913 C126.557951,42.1841913 126.171031,42.0135258 125.8636,41.6727793 C125.556752,41.3320327 125.403621,40.8007486 125.403621,40.0800959 C125.403621,38.579759 125.854248,37.3038589 126.755502,36.2518111 C127.656172,35.1997634 128.745041,34.6737395 130.020942,34.6737395 C130.926872,34.6737395 131.720583,34.8975919 132.402661,35.3458811 L130.473907,43.0755096 C130.142512,44.4005052 129.643373,45.3157867 128.975908,45.8225231 C128.309026,46.3292594 127.503041,46.5823353 126.557951,46.5823353 C125.88581,46.5823353 125.337576,46.4631032 124.913834,46.2246391 C124.490093,45.9855905 124.278514,45.6810811 124.278514,45.311111 L124.278514,45.311111 Z M118.943464,42.1841913 L120.550759,35.7696226 L119.089581,35.7696226 L119.089581,35.3166576 C120.394705,34.8882404 121.198352,34.6737395 121.500524,34.6737395 C121.841271,34.6737395 122.011936,34.8151815 122.011936,35.097481 C122.011936,35.2535347 121.978037,35.4528393 121.909654,35.6965637 L121.675865,36.5878819 C122.630306,35.3119818 123.502337,34.6737395 124.291373,34.6737395 C124.583608,34.6737395 124.815059,34.7614102 124.985724,34.9367515 C125.155805,35.1120928 125.241138,35.3312694 125.241138,35.5942813 C125.241138,35.8765808 125.143531,36.1688163 124.948903,36.4709877 C124.286697,36.1688163 123.833732,36.0180227 123.590008,36.0180227 C123.385443,36.0180227 123.183216,36.0694562 122.983911,36.1717386 C122.784022,36.274021 122.577119,36.4417642 122.362619,36.6755526 C122.148118,36.909341 121.980375,37.1039698 121.858805,37.2600235 C121.73665,37.4160773 121.558971,37.6592172 121.325183,37.9906122 L120.302359,42.0819089 L118.943464,42.1841913 Z M113.213895,38.6043067 C115.44482,37.7959834 116.559991,36.9239527 116.559991,35.9887992 C116.559991,35.4727113 116.331463,35.2143752 115.873238,35.2143752 C115.288767,35.2143752 114.741117,35.5527839 114.229705,36.2301857 C113.718293,36.9070031 113.379884,37.6983767 113.213895,38.6043067 L113.213895,38.6043067 Z M111.665047,39.7148016 C111.665047,39.2472248 111.728754,38.7773101 111.855,38.3044731 C111.98183,37.8322206 112.174121,37.3792556 112.432457,36.9461626 C112.690209,36.5124852 112.994718,36.1279033 113.345401,35.7918325 C113.696083,35.4551772 114.115149,35.1851516 114.602013,34.9805868 C115.089462,34.776022 115.610226,34.6737395 116.165473,34.6737395 C116.711369,34.6737395 117.15206,34.7976474 117.488131,35.0460475 C117.824202,35.2950322 117.991945,35.6574042 117.991945,36.1349169 C117.991945,36.4955355 117.887325,36.8240082 117.678084,37.1215039 C117.468259,37.4184152 117.212845,37.6691532 116.910674,37.873718 C116.609087,38.0782829 116.22392,38.2682359 115.756343,38.4435772 C115.288767,38.6189185 114.862687,38.7580226 114.478105,38.860305 C114.092939,38.962003 113.647572,39.0672077 113.140836,39.1741659 C113.131484,39.2618366 113.126224,39.3933425 113.126224,39.5686838 C113.126224,40.8352324 113.676796,41.4682144 114.777355,41.4682144 C115.284091,41.4682144 115.883174,41.3367085 116.574603,41.0736965 L116.72072,41.5266615 C115.844014,41.9650147 114.94802,42.1841913 114.032154,42.1841913 C112.454083,42.1841913 111.665047,41.3612562 111.665047,39.7148016 L111.665047,39.7148016 Z M104.79576,41.4389909 C105.000324,41.507374 105.244049,41.5412733 105.526348,41.5412733 C106.208426,41.5412733 106.824458,41.3098228 107.37503,40.8475063 C107.925602,40.3846053 108.339407,39.8194219 108.617031,39.1525405 C108.894654,38.4850747 109.033174,37.8006592 109.033174,37.099294 C109.033174,36.1542045 108.731587,35.6819519 108.127244,35.6819519 C107.796433,35.6819519 107.416527,35.861969 106.987526,36.2225876 C106.559108,36.5832062 106.174527,37.0162991 105.833195,37.5230355 L104.79576,41.4389909 Z M103.466088,41.5120497 L106.140043,31.4007022 L104.678865,31.4007022 L104.678865,30.9331254 C105.400103,30.709273 105.947752,30.5462056 106.322982,30.4433388 C106.698213,30.3410563 106.948951,30.2902074 107.075196,30.2902074 C107.416527,30.2902074 107.586608,30.4363251 107.586608,30.7285606 C107.586608,30.8746783 107.552709,31.0745674 107.484326,31.3276433 L106.19849,36.193364 C107.007398,35.1804759 107.88878,34.6737395 108.843221,34.6737395 C109.310798,34.6737395 109.698302,34.8444051 110.005149,35.1851516 C110.311996,35.5258982 110.465128,36.0571823 110.465128,36.777835 C110.465128,38.2781719 110.015085,39.554072 109.113831,40.6061198 C108.212577,41.6581675 107.124292,42.1841913 105.847807,42.1841913 C104.941877,42.1841913 104.148166,41.960339 103.466088,41.5120497 L103.466088,41.5120497 Z M99.1398341,41.7604499 C99.1398341,41.6336197 99.1784092,41.4343151 99.2567283,41.1613672 L101.682283,31.4007022 L100.221105,31.4007022 L100.221105,30.9331254 C100.931822,30.709273 101.472458,30.5462056 101.843012,30.4433388 C102.212982,30.3410563 102.475994,30.2902074 102.632048,30.2902074 C102.972795,30.2902074 103.14346,30.4363251 103.14346,30.7285606 C103.14346,30.8454548 103.104301,31.0453438 103.026566,31.3276433 L100.601011,41.0883083 L102.062189,41.0883083 L102.062189,41.5412733 C100.776353,41.9696905 99.9727052,42.1841913 99.6512462,42.1841913 C99.3099151,42.1841913 99.1398341,42.0427494 99.1398341,41.7604499 L99.1398341,41.7604499 Z M92.5481706,42.1841913 L94.1554658,35.7696226 L92.6942884,35.7696226 L92.6942884,35.3166576 C93.999412,34.8882404 94.8030596,34.6737395 95.1052311,34.6737395 C95.4459776,34.6737395 95.6166432,34.8151815 95.6166432,35.097481 C95.6166432,35.2535347 95.5821594,35.4528393 95.5143607,35.6965637 L95.2805724,36.5878819 C96.2350134,35.3119818 97.1070441,34.6737395 97.8960799,34.6737395 C98.1883154,34.6737395 98.4197659,34.7614102 98.5898469,34.9367515 C98.7605124,35.1120928 98.8458452,35.3312694 98.8458452,35.5942813 C98.8458452,35.8765808 98.7482386,36.1688163 98.5536097,36.4709877 C97.8908197,36.1688163 97.4378547,36.0180227 97.1947147,36.0180227 C96.9901499,36.0180227 96.787923,36.0694562 96.5880339,36.1717386 C96.3887293,36.274021 96.1812421,36.4417642 95.9673257,36.6755526 C95.7528249,36.909341 95.5850817,37.1039698 95.4629273,37.2600235 C95.3413573,37.4160773 95.1636782,37.6592172 94.9298898,37.9906122 L93.9070656,42.0819089 L92.5481706,42.1841913 Z M85.3282009,39.7586369 C85.3282009,40.7037264 85.6303724,41.1759789 86.2341309,41.1759789 C86.5655259,41.1759789 86.9524457,40.9907017 87.3954747,40.6207315 C87.8390881,40.2507614 88.2260079,39.807148 88.5574029,39.2910601 L89.5656153,35.41894 C89.3610505,35.3505569 89.1173261,35.3166576 88.8350266,35.3166576 C88.152949,35.3166576 87.5369166,35.5481081 86.986345,36.0110091 C86.4363578,36.4733256 86.0219679,37.038509 85.7443442,37.7059749 C85.4667205,38.3728562 85.3282009,39.0572717 85.3282009,39.7586369 L85.3282009,39.7586369 Z M83.8962471,40.0800959 C83.8962471,38.579759 84.3468742,37.3038589 85.2475439,36.2518111 C86.1487981,35.1997634 87.2376675,34.6737395 88.5135676,34.6737395 C89.4194976,34.6737395 90.2132092,34.8975919 90.8952868,35.3458811 L89.4194976,41.0736965 L90.880675,41.0736965 L90.880675,41.5412733 C90.1600223,41.7651257 89.6117885,41.9281931 89.2365582,42.0304755 C88.8619123,42.1327579 88.6111743,42.1841913 88.4843441,42.1841913 C88.1435975,42.1841913 87.972932,42.0380736 87.972932,41.7458381 C87.972932,41.5997204 88.0068313,41.3998313 88.0752144,41.1467554 L88.2067204,40.6207315 C87.388461,41.6628433 86.492467,42.1841913 85.518154,42.1841913 C85.0505772,42.1841913 84.6630729,42.0135258 84.3562257,41.6727793 C84.0493784,41.3320327 83.8962471,40.8007486 83.8962471,40.0800959 L83.8962471,40.0800959 Z M77.4360896,42.1841913 L79.0433847,35.7696226 L77.5822073,35.7696226 L77.5822073,35.3166576 C78.8873309,34.8882404 79.6909785,34.6737395 79.99315,34.6737395 C80.3338966,34.6737395 80.5045621,34.8151815 80.5045621,35.097481 C80.5045621,35.2535347 80.4706628,35.4528393 80.4022797,35.6965637 L80.1684913,36.5878819 C81.1229324,35.3119818 81.994963,34.6737395 82.7839988,34.6737395 C83.0762343,34.6737395 83.3076848,34.7614102 83.4783503,34.9367515 C83.6484314,35.1120928 83.7337641,35.3312694 83.7337641,35.5942813 C83.7337641,35.8765808 83.6361575,36.1688163 83.4415286,36.4709877 C82.7793231,36.1688163 82.3263581,36.0180227 82.0826337,36.0180227 C81.8780688,36.0180227 81.6758419,36.0694562 81.4765373,36.1717386 C81.2766482,36.274021 81.0697455,36.4417642 80.8552447,36.6755526 C80.6407438,36.909341 80.4730007,37.1039698 80.3514307,37.2600235 C80.2292763,37.4160773 80.0515971,37.6592172 79.8178087,37.9906122 L78.7949845,42.0819089 L77.4360896,42.1841913 Z M70.7129201,39.7732486 C70.7129201,40.9907017 71.0834747,41.5997204 71.823415,41.5997204 C72.2717042,41.5997204 72.6761581,41.4413288 73.0361922,41.12513 C73.3968108,40.8083467 73.6814481,40.4114909 73.8912732,39.9339782 C74.1005138,39.4564654 74.2589054,38.971939 74.3658636,38.4798144 C74.4734063,37.9882743 74.5265931,37.5277112 74.5265931,37.099294 C74.5265931,35.871905 74.156623,35.2582105 73.4160983,35.2582105 C72.9777451,35.2582105 72.5762136,35.4166021 72.2109192,35.7333854 C71.8456249,36.0495842 71.560403,36.44644 71.3558382,36.9239527 C71.1512734,37.4014655 70.9928817,37.8883298 70.8812478,38.3851301 C70.7690294,38.8819304 70.7129201,39.3448314 70.7129201,39.7732486 L70.7129201,39.7732486 Z M69.237131,39.5102367 C69.237131,38.7112649 69.4101344,37.9491148 69.7561412,37.2237863 C70.1015635,36.4978734 70.6129756,35.8911925 71.2903774,35.4043282 C71.9671948,34.9174639 72.7346052,34.6737395 73.5914396,34.6737395 C74.3904114,34.6737395 74.9941699,34.9122037 75.4032996,35.3897165 C75.8124292,35.8672292 76.0169941,36.5247591 76.0169941,37.3623059 C76.0169941,38.1513417 75.8439907,38.911154 75.4985683,39.6417427 C75.1525615,40.3723314 74.6388116,40.9784278 73.956734,41.4612008 C73.2752408,41.9433893 72.5054926,42.1841913 71.6480737,42.1841913 C70.8496863,42.1841913 70.2476813,41.9480651 69.8438118,41.4758125 C69.4393579,41.0029755 69.237131,40.3477836 69.237131,39.5102367 L69.237131,39.5102367 Z M61.3157961,32.4527499 L61.4619138,31.8536672 L65.1440809,31.8536672 L64.9979631,32.4527499 L63.8728565,32.7011501 L64.4281039,39.9485899 L68.4171182,32.7742089 L67.394294,32.4527499 L67.5404118,31.8536672 L70.9303433,31.8536672 L70.7842256,32.4527499 L69.4399424,32.7742089 L64.2089273,42.1841913 L63.1861032,42.1841913 L62.4555145,32.7742089 L61.3157961,32.4527499 Z M47.9723241,42.1841913 L49.5650075,35.7842344 L48.1038301,35.7842344 L48.1038301,35.3166576 C48.8344188,35.0928052 49.384406,34.9297378 49.7549606,34.8268709 C50.1249307,34.7245885 50.3780066,34.6737395 50.5147728,34.6737395 C50.8555194,34.6737395 51.0261849,34.8198573 51.0261849,35.1120928 C51.0261849,35.1898274 51.0162489,35.277498 50.9969613,35.3751047 C50.9770893,35.4727113 50.953126,35.5843453 50.9239025,35.7111755 L50.6901141,36.6171055 C51.6638427,35.3213334 52.6428316,34.6737395 53.6270806,34.6737395 C54.5330106,34.6737395 54.9859756,35.1512523 54.9859756,36.1056934 C54.9859756,36.5925577 54.8638212,37.240736 54.6206813,38.0490593 L53.7439748,41.0736965 L55.2051522,41.0736965 L55.2051522,41.5412733 C54.4745635,41.7651257 53.9239919,41.9281931 53.5540218,42.0304755 C53.1834672,42.1327579 52.9303913,42.1841913 52.7942095,42.1841913 C52.4528785,42.1841913 52.2827974,42.0380736 52.2827974,41.7458381 C52.2827974,41.5804328 52.3166968,41.3805438 52.3850799,41.1467554 C53.1250201,38.5850192 53.5172001,37.1992386 53.5610354,36.9894135 C53.6048707,36.7801729 53.6270806,36.5978179 53.6270806,36.4417642 C53.6270806,35.9841234 53.4464791,35.7550108 53.086445,35.7550108 C52.9111037,35.7550108 52.704201,35.8157958 52.4651524,35.9379502 C52.2266882,36.0595202 51.980626,36.2202497 51.72755,36.4201388 C51.4738896,36.6194434 51.2284118,36.8508939 50.9893632,37.1139058 C50.7508991,37.3769177 50.5439963,37.6446054 50.3686551,37.9175534 L49.3166073,42.0819089 L47.9723241,42.1841913 Z M45.0920513,32.6719265 C45.0920513,32.4089146 45.1843977,32.1874001 45.369675,32.007383 C45.5549523,31.8267815 45.7788046,31.736773 46.0418166,31.736773 C46.3048285,31.736773 46.526343,31.8267815 46.70636,32.007383 C46.8869616,32.1874001 46.9769701,32.4089146 46.9769701,32.6719265 C46.9769701,32.9448745 46.8869616,33.1710647 46.70636,33.3516662 C46.526343,33.5316833 46.3048285,33.6216918 46.0418166,33.6216918 C45.7788046,33.6216918 45.5549523,33.5316833 45.369675,33.3516662 C45.1843977,33.1710647 45.0920513,32.9448745 45.0920513,32.6719265 L45.0920513,32.6719265 Z M43.3240266,41.7604499 C43.3140906,41.6827153 43.3216887,41.5950446 43.345652,41.497438 C43.3701998,41.3998313 43.3970855,41.2881974 43.426309,41.1613672 L44.7998158,35.7696226 L43.3240266,35.7696226 L43.3240266,35.3166576 C44.6683098,34.8882404 45.4719574,34.6737395 45.7349693,34.6737395 C46.0856519,34.6737395 46.2609932,34.8151815 46.2609932,35.097481 C46.2609932,35.2044392 46.2218336,35.4043282 46.144099,35.6965637 L44.7998158,41.0883083 L46.2609932,41.0883083 L46.2609932,41.5412733 C44.9751571,41.9696905 44.1715095,42.1841913 43.8500505,42.1841913 C43.4993679,42.1841913 43.3240266,42.0427494 43.3240266,41.7604499 L43.3240266,41.7604499 Z" id="Fill-8" fill="#000000"></path>
        </g>
    </g>
</svg>
